<mxfile host="app.diagrams.net" modified="2023-10-22T07:56:33.895Z" agent="Mozilla/5.0 (Macintosh; Intel Mac OS X 10_15_7) AppleWebKit/537.36 (KHTML, like Gecko) Chrome/118.0.0.0 Safari/537.36" version="22.0.6" etag="-CInGXgs9GLVqdsfwT6l" type="github">
  <diagram name="第 1 页" id="52ZG-Kal_9GPNhWKJSqw">
    <mxGraphModel>
      <root>
        <mxCell id="0" />
        <mxCell id="1" parent="0" />
      </root>
    </mxGraphModel>
  </diagram>
</mxfile>
